<svg width="21" height="16" viewBox="0 0 21 16" fill="none" xmlns="http://www.w3.org/2000/svg">
<path fill-rule="evenodd" clip-rule="evenodd" d="M15.5834 6.71146C15.5834 3.03788 11.2323 1.10006 8.50174 3.55755C8.19386 3.83464 7.71964 3.80968 7.44255 3.5018C7.16546 3.19392 7.19042 2.7197 7.4983 2.44261C11.1941 -0.883635 17.0834 1.73922 17.0834 6.71146V8.68939L19.1364 6.63642C19.4292 6.34353 19.9041 6.34353 20.197 6.63642C20.4899 6.92932 20.4899 7.40419 20.197 7.69708L16.8679 11.0262L16.8595 11.0346L16.3334 11.5607L15.803 11.0304L12.4697 7.69708C12.1768 7.40419 12.1768 6.92932 12.4697 6.63642C12.7626 6.34353 13.2375 6.34353 13.5304 6.63642L15.5834 8.68946V6.71146ZM4.66668 4.43944L4.13635 4.96977L0.803013 8.3031C0.51012 8.596 0.51012 9.07087 0.803013 9.36376C1.09591 9.65666 1.57078 9.65666 1.86367 9.36376L3.91664 7.3108L3.91664 9.28873C3.91664 14.261 9.80589 16.8838 13.5017 13.5576C13.8096 13.2805 13.8346 12.8063 13.5575 12.4984C13.2804 12.1905 12.8062 12.1655 12.4983 12.4426C9.76773 14.9001 5.41664 12.9623 5.41664 9.28873L5.41664 7.31072L7.46968 9.36376C7.76257 9.65666 8.23745 9.65666 8.53034 9.36376C8.82323 9.07087 8.82323 8.59599 8.53034 8.3031L5.19701 4.96977L4.66668 4.43944Z" fill="white"/>
</svg>
