<svg width="20" height="20" viewBox="0 0 20 20" fill="none" xmlns="http://www.w3.org/2000/svg">
<path fill-rule="evenodd" clip-rule="evenodd" d="M2.41669 9.16669C2.41669 5.43876 5.43876 2.41669 9.16669 2.41669C12.8946 2.41669 15.9167 5.43876 15.9167 9.16669C15.9167 12.8946 12.8946 15.9167 9.16669 15.9167C5.43876 15.9167 2.41669 12.8946 2.41669 9.16669ZM9.16669 0.916687C4.61034 0.916687 0.916687 4.61034 0.916687 9.16669C0.916687 13.723 4.61034 17.4167 9.16669 17.4167C11.1748 17.4167 13.0154 16.6992 14.446 15.5066L17.3864 18.447C17.6792 18.7399 18.1541 18.7399 18.447 18.447C18.7399 18.1541 18.7399 17.6792 18.447 17.3864L15.5066 14.446C16.6992 13.0154 17.4167 11.1748 17.4167 9.16669C17.4167 4.61034 13.723 0.916687 9.16669 0.916687Z" fill="white"/>
</svg>
